<svg width="152" height="49" viewBox="0 0 152 49" fill="none" xmlns="http://www.w3.org/2000/svg">
<path d="M12.5045 12.581L18.0451 0.778441C18.0451 0.778441 20.6307 -1.38396 22.4786 1.49934L24.6026 5.64377C24.6026 5.64377 25.4337 7.71597 23.4945 8.88721L14.1666 13.3918C14.1666 13.3918 11.8567 14.2927 12.5045 12.581Z" fill="white"/>
<path d="M16.3538 17.8535L21.9721 28.786C21.9721 28.786 23.425 31.0481 20.2286 31.7064C20.2286 31.7064 13.351 30.198 11.4136 34.3452L8.02322 41.7901C8.02322 41.7901 4.43896 45.8428 0.272207 40.942C0.272207 40.942 -0.502895 39.5284 0.562787 37.2663L7.82928 21.6225C7.82928 21.6225 11.7038 15.5905 16.3538 17.8535Z" fill="white"/>
<path d="M21.0625 17.7418L32.1263 42.6024C32.1263 42.6024 35.1433 46.7764 38.7096 43.0664C41.3958 40.2711 37.5832 34.7746 36.3208 31.9846L31.4018 21.1161C30.5173 19.1616 29.5534 17.2248 28.7421 15.2374C28.7421 15.2343 27.6428 12.5483 24.079 14.1244C24.0793 14.124 21.4277 14.8663 21.0625 17.7418Z" fill="white"/>
<path d="M42.7862 19.6338L47.0811 20.2724C46.8445 21.4437 46.4559 22.4571 45.9158 23.3124C45.376 24.1677 44.6858 24.8327 43.8459 25.3075C43.0063 25.7813 41.9389 26.0183 40.6437 26.0185C39.3933 26.0185 38.3521 25.8663 37.5195 25.562C36.6888 25.2587 35.9495 24.7498 35.3722 24.0834C34.7729 23.4019 34.3033 22.6022 33.9629 21.6841C33.6229 20.766 33.4527 19.5481 33.4524 18.0306C33.4524 16.4457 33.6598 15.1264 34.0739 14.0727C34.3682 13.315 34.7882 12.6118 35.317 11.9925C35.8422 11.3787 36.3823 10.922 36.9373 10.6223C37.8178 10.1489 38.9462 9.91205 40.3226 9.91187C42.2463 9.91187 43.713 10.3617 44.7227 11.2615C45.7328 12.1612 46.4413 13.4767 46.8481 15.2081L42.5968 15.9479C42.4638 15.2901 42.2213 14.7943 41.87 14.4605C41.5187 14.1267 41.0472 13.9598 40.4549 13.96C39.7077 13.96 39.1027 14.3101 38.6403 15.0103C38.178 15.7105 37.9468 16.7703 37.9468 18.1897C37.9468 19.4548 38.1762 20.4156 38.6348 21.0721C39.0935 21.7287 39.6782 22.057 40.3884 22.057C40.9804 22.057 41.4778 21.8587 41.881 21.462C42.2842 21.0654 42.5861 20.456 42.7862 19.6338Z" fill="white"/>
<path d="M58.5023 19.6339L63.1878 20.2725C62.9296 21.4438 62.5057 22.4571 61.9165 23.3124C61.3276 24.1677 60.5747 24.8327 59.6585 25.3075C58.7426 25.7813 57.5781 26.0183 56.1651 26.0185C54.8011 26.0185 53.6652 25.8663 52.757 25.562C51.8507 25.2587 51.0442 24.7498 50.4144 24.0834C49.7607 23.402 49.2483 22.6022 48.877 21.6842C48.506 20.7661 48.3204 19.5483 48.3201 18.0308C48.3201 16.4458 48.5463 15.1266 48.9981 14.073C49.3188 13.3151 49.7773 12.6118 50.3542 11.9924C50.9271 11.3787 51.5163 10.9219 52.1218 10.6222C53.0823 10.1488 54.3133 9.91205 55.8148 9.91187C57.9135 9.91187 59.5134 10.3617 60.615 11.2614C61.7169 12.1611 62.4898 13.4767 62.9336 15.208L58.2967 15.9481C58.1517 15.2903 57.8872 14.7945 57.5039 14.4607C57.1206 14.1269 56.6063 13.9601 55.9602 13.9603C55.1451 13.9603 54.485 14.3103 53.9806 15.0105C53.4763 15.7107 53.2241 16.7705 53.2241 18.1898C53.2241 19.4549 53.4743 20.4157 53.9746 21.0722C54.475 21.7288 55.1128 22.0571 55.8877 22.0571C56.5334 22.0571 57.0761 21.8587 57.5159 21.4621C57.9557 21.0654 58.2848 20.4561 58.5023 19.6339Z" fill="white"/>
<path d="M64.4265 18.0081C64.4265 15.6576 65.0374 13.7206 66.2586 12.1971C67.4801 10.6736 69.1298 9.91187 71.2074 9.91187C73.5831 9.91187 75.378 10.8066 76.5919 12.5961C77.5674 14.0375 78.0552 15.8126 78.0552 17.9211C78.0552 20.2912 77.4502 22.233 76.2401 23.7466C75.0299 25.2602 73.3563 26.0175 71.2188 26.0185C69.3124 26.0185 67.7708 25.3898 66.5941 24.1322C65.1488 22.5738 64.4265 20.5324 64.4265 18.0081ZM68.9843 17.9935C68.9843 19.3668 69.1985 20.3825 69.6265 21.0406C70.0547 21.6987 70.5928 22.0276 71.2406 22.0272C71.8957 22.0272 72.4335 21.7032 72.8547 21.0552C73.2758 20.4071 73.4864 19.3671 73.4858 17.9351C73.4858 16.6002 73.2737 15.6063 72.8491 14.9534C72.4249 14.3005 71.8997 13.974 71.274 13.974C70.6113 13.974 70.0639 14.3053 69.632 14.9679C69.2004 15.6305 68.9843 16.6392 68.984 17.9941L68.9843 17.9935Z" fill="white"/>
<path d="M92.9232 25.6624H88.3115V23.1117C87.6239 24.1599 86.9302 24.9064 86.2302 25.3513C85.5305 25.7961 84.6707 26.0185 83.6512 26.0185C82.2922 26.0185 81.2264 25.5217 80.4533 24.5279C79.6806 23.5342 79.2944 22.0038 79.2944 19.9367V9.91187H84.2592V18.5743C84.2592 19.563 84.409 20.2649 84.7081 20.6798C85.0076 21.0947 85.4281 21.3023 85.9704 21.3028C86.561 21.3028 87.0446 21.026 87.4208 20.4723C87.7973 19.9187 87.9851 18.9248 87.9837 17.4905V9.91187H92.9232V25.6624Z" fill="white"/>
<path d="M95.4023 10.2679H99.5834V12.8336C100.208 11.7858 100.841 11.0368 101.481 10.5866C102.121 10.1364 102.9 9.91143 103.82 9.91187C105.063 9.91187 106.035 10.4087 106.737 11.4025C107.44 12.3962 107.791 13.9311 107.791 16.0074V26.0185H103.279V17.3574C103.279 16.3688 103.143 15.6692 102.871 15.2587C102.599 14.8481 102.216 14.6429 101.722 14.6431C101.178 14.6431 100.737 14.9199 100.398 15.4736C100.06 16.0272 99.8908 17.0209 99.8908 18.4547V26.0185H95.4011L95.4023 10.2679Z" fill="white"/>
<path d="M121.42 12.3898H117.703V26.0185H121.42V12.3898Z" fill="white"/>
<path d="M125.136 12.6908H128.48V14.8618C128.981 13.9751 129.487 13.3414 129.999 12.9606C130.511 12.5798 131.135 12.3895 131.87 12.3898C132.865 12.3898 133.643 12.8101 134.205 13.6508C134.767 14.4916 135.048 15.7904 135.048 17.5473V26.0178H131.437V18.6894C131.437 17.8532 131.328 17.2612 131.11 16.9137C130.892 16.5661 130.586 16.3925 130.192 16.393C129.757 16.393 129.403 16.6272 129.133 17.0957C128.862 17.5642 128.727 18.4051 128.727 19.6182V26.0185H125.136V12.6908Z" fill="white"/>
<path d="M145.04 11.4652H148.667V24.5717L148.677 25.1859C148.681 26.0338 148.544 26.876 148.272 27.6752C148.002 28.4636 147.644 29.1017 147.196 29.5895C146.749 30.0773 146.181 30.4301 145.492 30.6478C144.803 30.8655 144.015 30.9743 143.126 30.9743C141.095 30.9743 139.7 30.5562 138.942 29.7198C138.184 28.8834 137.804 27.764 137.804 26.3614C137.804 26.187 137.811 25.9518 137.823 25.6557L141.584 26.2438C141.679 26.7227 141.825 27.0537 142.022 27.2368C142.308 27.5068 142.666 27.6418 143.098 27.6421C143.656 27.6421 144.074 27.4373 144.351 27.0278C144.627 26.6184 144.765 25.9039 144.765 24.8845V22.7813C144.384 23.3999 144.003 23.8486 143.622 24.1272C143.024 24.5622 142.379 24.7796 141.688 24.7796C140.336 24.7796 139.244 23.9695 138.412 22.3492C137.821 21.1994 137.526 19.6793 137.526 17.7889C137.526 15.6285 137.907 13.982 138.669 12.8494C139.43 11.7167 140.427 11.1505 141.658 11.1508C142.445 11.1508 143.094 11.3337 143.605 11.6997C144.116 12.0656 144.595 12.6713 145.04 13.5168V11.4652ZM141.392 18.1948C141.392 19.1966 141.548 19.9393 141.859 20.4229C142.17 20.9065 142.58 21.1482 143.087 21.148C143.57 21.148 143.974 20.8975 144.301 20.3968C144.628 19.896 144.792 19.1402 144.792 18.1295C144.792 17.1189 144.62 16.3458 144.278 15.8099C143.935 15.2741 143.516 15.0062 143.021 15.0062C142.526 15.0062 142.131 15.2517 141.835 15.7429C141.54 16.2341 141.392 17.0514 141.392 18.1948Z" fill="white"/>
<path d="M116.464 39.0351C116.464 37.2746 116.963 35.9042 117.963 34.9236C118.962 33.9429 120.353 33.4524 122.137 33.4524C123.965 33.4524 125.374 33.9353 126.364 34.9014C127.353 35.8624 127.848 37.2109 127.848 38.947C127.848 40.2071 127.63 41.2416 127.196 42.0509C126.766 42.8551 126.141 43.4828 125.322 43.9336C124.508 44.3801 123.491 44.6032 122.272 44.6032C121.033 44.6032 120.006 44.4096 119.192 44.0221C118.382 43.6345 117.725 43.0217 117.221 42.1833C116.716 41.3446 116.464 40.2952 116.464 39.0351ZM119.859 39.05C119.859 40.1384 120.063 40.9207 120.473 41.3963C120.888 41.8719 121.45 42.1095 122.16 42.1095C122.889 42.1095 123.453 41.8766 123.853 41.4108C124.253 40.9451 124.453 40.1089 124.453 38.9026C124.453 37.8877 124.243 37.1472 123.823 36.6815C123.409 36.2106 122.844 35.9752 122.129 35.9752C121.445 35.9752 120.895 36.2132 120.481 36.6888C120.066 37.1644 119.859 37.9514 119.859 39.05ZM129.249 39.0351C129.249 37.2746 129.749 35.9042 130.748 34.9236C131.747 33.9429 133.139 33.4524 134.922 33.4524C136.751 33.4524 138.16 33.9353 139.149 34.9014C140.138 35.8624 140.633 37.2109 140.633 38.947C140.633 40.2071 140.416 41.2416 139.981 42.0509C139.551 42.8551 138.927 43.4828 138.107 43.9336C137.293 44.3801 136.276 44.6032 135.057 44.6032C133.818 44.6032 132.791 44.4096 131.977 44.0221C131.167 43.6345 130.51 43.0217 130.006 42.1833C129.501 41.3446 129.249 40.2952 129.249 39.0351ZM132.644 39.05C132.644 40.1384 132.849 40.9207 133.259 41.3963C133.673 41.8719 134.235 42.1095 134.945 42.1095C135.674 42.1095 136.239 41.8766 136.638 41.4108C137.038 40.9451 137.238 40.1089 137.238 38.9026C137.238 37.8877 137.028 37.1472 136.609 36.6815C136.194 36.2106 135.629 35.9752 134.915 35.9752C134.23 35.9752 133.681 36.2132 133.266 36.6888C132.851 37.1644 132.644 37.9514 132.644 39.05ZM142.461 33.6362H145.856V41.7638H151.155V44.4194H142.461V33.6362Z" fill="white"/>
<path d="M103.794 7.42759C104.297 6.61166 103.629 5.77425 104.074 4.95727C103.35 4.93475 103.045 5.17697 102.983 5.36262C102.772 5.9929 102.772 6.63208 103.078 7.26079C103.133 7.37522 103.431 7.45744 103.794 7.42759Z" fill="white"/>
<path d="M110.716 24.951C110.348 25.8176 110.423 26.7468 110.423 27.6335C110.421 33.4804 110.5 39.3271 110.524 45.1738C110.527 45.9568 110.378 46.7413 110.279 47.5226C110.228 47.9316 110.358 48.1557 110.823 48.1937C112.374 48.3198 113.924 48.4038 115.475 48.1833C116.229 48.0759 116.609 47.8447 116.412 46.9784C116.001 45.1677 116.049 43.3063 115.935 41.4628C115.753 38.5257 115.61 35.5847 115.482 32.6472C115.379 30.2207 115.199 27.8145 114.857 25.4109C114.83 25.2183 114.784 25.0574 114.641 24.9208C113.331 24.9296 112.02 24.5787 110.716 24.951Z" fill="white"/>
<path d="M115.273 6.88555C117.898 6.39883 120.457 7.01468 123.025 7.40927C124.479 7.6326 125.921 7.9371 127.614 8.25051C126.596 7.30103 125.577 6.83931 124.597 6.34471C122.166 5.11813 119.587 4.47932 116.898 4.14262C114.532 3.84634 112.199 3.64014 109.804 3.74427C107.797 3.83161 105.792 4.01281 103.782 4.05254C103.573 4.05665 103.365 4.15838 103.158 4.2149C102.614 5.2685 102.895 6.36115 103.017 7.44626C103.634 7.52635 104.259 7.51884 104.873 7.424C105.227 7.25445 105.618 7.3555 105.982 7.25959C106.876 7.20992 107.77 7.22842 108.665 7.22328C109.809 7.1791 110.664 7.84359 111.525 8.49473C111.73 8.63756 111.95 8.70607 112.196 8.65709C113.04 8.18098 113.743 7.4651 114.645 7.08524C114.86 7.04003 115.063 6.95166 115.273 6.88555Z" fill="white"/>
<path d="M115.225 7.43384C114.266 7.5999 113.588 8.25225 112.914 8.91375C112.633 10.2492 112.779 11.6027 112.831 12.94C112.942 15.7819 113.045 18.6235 113.097 21.467C113.107 21.9849 113.092 22.5066 113.362 22.9752C114.099 23.7674 114.373 23.7369 114.682 22.8207C114.47 20.9721 114.495 19.1123 114.447 17.256C114.392 15.1341 114.36 13.0113 114.292 10.89C114.263 9.98842 114.35 9.11912 114.681 8.28364C114.675 7.86803 115.196 7.82507 115.225 7.43384Z" fill="white"/>
<path d="M112.747 22.7923C112.697 20.8976 112.64 19.0028 112.598 17.1074C112.537 14.3759 112.488 11.6438 112.434 8.91196L112.104 8.67285C111.906 9.2175 111.656 9.71806 111.508 10.3037C111.578 14.0948 111.631 17.8868 111.79 21.6733C111.805 22.0407 111.757 22.4133 111.738 22.7835C111.809 23.2136 111.959 23.5605 112.277 23.5397C112.56 23.521 112.712 23.2161 112.747 22.7923Z" fill="white"/>
<path d="M110.723 9.91179C111.129 9.51342 111.61 9.15719 111.489 8.45431C110.766 7.9071 110.084 7.25045 109.075 7.48138C109.048 7.51716 109.033 7.5608 109.03 7.60633C109.028 7.65188 109.039 7.69708 109.062 7.73583L109.377 7.84007C109.476 7.80915 109.56 7.85539 109.647 7.89479C109.868 8.05474 110.06 8.25477 110.213 8.4855C110.231 8.54977 110.238 8.61658 110.235 8.68331L110.723 9.91179Z" fill="white"/>
<path d="M112.754 23.5486C112.389 24.2614 112.029 24.1321 111.67 23.5405C111.571 23.8296 111.495 24.1257 111.509 24.4472C111.713 24.848 112.044 24.6189 112.309 24.7153C112.887 24.8119 113.459 24.853 113.986 24.4388L113.754 23.6338C113.37 24.5818 113.069 23.9251 112.754 23.5486Z" fill="white"/>
<path d="M112.33 25.007L111.56 24.7794C111.509 25.1314 111.47 25.483 111.568 25.8298C112.365 25.7778 113.162 26.3067 113.956 25.7899L113.986 25.4163C113.665 25.1349 113.332 25.3057 113.004 25.3027C112.768 25.3005 112.534 25.2979 112.33 25.007Z" fill="white"/>
<path d="M114.686 7.45908C114.536 7.92429 113.838 7.93778 114.014 8.67281L115.225 7.43384L114.686 7.45908Z" fill="white"/>
<path d="M110.131 8.67281L110.269 8.51387C110.062 8.04542 109.731 7.66659 109.323 7.43384L109.03 7.47842L110.131 8.67281Z" fill="white"/>
<path d="M109.03 7.43384L110.269 8.67281C110.131 7.97906 109.718 7.56605 109.03 7.43384Z" fill="white"/>
</svg>
