<svg width="57" height="63" viewBox="0 0 57 63" fill="none" xmlns="http://www.w3.org/2000/svg">
<path d="M17.3018 18.6101L25.2978 1.15149C25.2978 1.15149 29.0292 -2.04719 31.696 2.21787L34.7613 8.34841C34.7613 8.34841 35.9606 11.4137 33.1622 13.1462L19.7004 19.8095C19.7004 19.8095 16.367 21.1422 17.3018 18.6101Z" fill="#1A6BB4"/>
<path d="M22.4993 26.2077L30.229 41.667C30.229 41.667 32.2279 44.8657 27.8303 45.7966C27.8303 45.7966 18.3681 43.6636 15.7027 49.528L11.0383 60.0556C11.0383 60.0556 6.10707 65.7864 0.374499 58.8563C0.374499 58.8563 -0.691878 56.8574 0.774276 53.6587L10.7715 31.5374C10.7715 31.5374 16.102 23.0077 22.4993 26.2077Z" fill="#1A6BB4"/>
<path d="M29.1635 24.3404L45.2894 60.057C45.2894 60.057 49.6868 66.0537 54.8848 60.7236C58.8 56.7077 53.2431 48.811 51.403 44.8026L44.2335 29.1882C42.9443 26.3802 41.5394 23.5976 40.3568 20.7424C40.3568 20.7379 38.7546 16.879 33.5602 19.1433C33.5606 19.1429 29.6958 20.2093 29.1635 24.3404Z" fill="#1A6BB4"/>
</svg>
