<svg width="24" height="26" viewBox="0 0 24 26" fill="none" xmlns="http://www.w3.org/2000/svg">
<path d="M7.13314 7.69604L10.419 0.476188C10.419 0.476188 11.9525 -0.846594 13.0484 0.917178L14.308 3.4524C14.308 3.4524 14.8009 4.72001 13.6509 5.43648L8.11886 8.19201C8.11886 8.19201 6.749 8.74315 7.13314 7.69604Z" fill="white"/>
<path d="M9.22207 10.893L12.3903 17.246C12.3903 17.246 13.2096 18.5605 11.4071 18.9429C11.4071 18.9429 7.52877 18.0665 6.43623 20.4764L4.52439 24.8027C4.52439 24.8027 2.50318 27.1578 0.1535 24.3098C0.1535 24.3098 -0.283588 23.4884 0.317362 22.1739L4.41502 13.0832C4.41502 13.0832 6.59991 9.57789 9.22207 10.893Z" fill="white"/>
<path d="M12.0107 10.0697L18.6563 24.8135C18.6563 24.8135 20.4685 27.2889 22.6107 25.0886C24.2241 23.4308 21.9341 20.1711 21.1758 18.5165L18.2211 12.0709C17.6899 10.9117 17.1109 9.76308 16.6236 8.58446C16.6236 8.58259 15.9633 6.98962 13.8226 7.92435C13.8228 7.92416 12.2301 8.36436 12.0107 10.0697Z" fill="white"/>
</svg>
