<svg width="28" height="28" viewBox="0 0 28 28" fill="none" xmlns="http://www.w3.org/2000/svg">
<path d="M12.9981 8.12379L12.2398 8.88201C11.969 9.15281 11.5358 9.15281 11.3191 8.88201L9.58606 7.14894C9.47775 7.04062 9.31527 6.9323 9.15279 6.9323H6.01159C5.41585 6.9323 5.14506 7.63637 5.57833 8.06963L9.31527 11.8066L9.91102 12.4023L11.5358 14.0271L12.1315 14.6228L13.4313 15.9226L14.0271 16.5184L15.6518 18.1431L16.2476 18.7389L18.4681 20.9594C18.5764 21.0677 18.7389 21.176 18.9013 21.176H22.0425C22.6383 21.176 22.9091 20.472 22.4758 20.0387L19.1721 16.735C18.9013 16.4642 18.9013 16.031 19.1721 15.8143L19.9304 15.0561C20.2012 14.7853 20.6344 14.7853 20.8511 15.0561L25.7253 19.9304C26.0503 20.2553 26.5919 20.147 26.8085 19.7679C27.6209 18.0348 28 16.0851 28 14.0271C28 10.5068 26.7002 7.31141 24.588 4.87428C24.2089 4.44101 23.4507 4.7118 23.4507 5.30755V10.0735C23.4507 10.236 23.3965 10.3985 23.234 10.5068L20.3636 13.4313L19.7679 14.0271L18.1431 15.6518L17.6015 16.2476L16.735 17.1141C16.4642 17.3849 16.0309 17.3849 15.8143 17.1141L15.0561 16.3559C14.7853 16.0851 14.7853 15.6518 15.0561 15.4352L15.9226 14.5687L16.5184 13.9729L18.1431 12.3482L18.7389 11.7524L20.9594 9.53192C21.0677 9.4236 21.176 9.26112 21.176 9.09865V6.01161C21.176 5.41586 20.4719 5.14507 20.0387 5.57834L16.2476 9.31528L15.706 9.85687L14.0812 11.4816L13.4855 12.0774L12.5648 12.9981C12.294 13.2689 11.8607 13.2689 11.6441 12.9981L10.8859 12.2398C10.6151 11.9691 10.6151 11.5358 10.8859 11.3192L11.7524 10.4526L12.3482 9.85687L13.9729 8.23211L14.5687 7.63637L19.9304 2.27466C20.2553 1.94971 20.147 1.40812 19.7679 1.19149C18.0348 0.433269 16.0851 0 14.0271 0C10.5068 0 7.3114 1.29981 4.87426 3.41199C4.38684 3.7911 4.71179 4.54932 5.30753 4.54932H10.0735C10.236 4.54932 10.3984 4.60348 10.5068 4.76596L12.8897 7.14894C13.2147 7.41973 13.2147 7.853 12.9981 8.12379Z" fill="#000"/>
<path d="M14.6228 20.4178L14.0271 19.822L12.4023 18.1973L11.8066 17.6015L10.4526 16.2476L9.85687 15.706L8.23211 14.0812L7.63637 13.4855L2.27466 8.12378C1.94971 7.79882 1.40812 7.90714 1.19149 8.28625C0.433269 10.0193 0 11.969 0 14.0271C0 17.5474 1.29981 20.7427 3.41199 23.1799C3.7911 23.6131 4.54932 23.3423 4.54932 22.7466V17.9265C4.54932 17.764 4.60348 17.6015 4.76596 17.4932L7.14894 15.1102C7.41973 14.8394 7.853 14.8394 8.06963 15.1102L8.82785 15.8685C9.09865 16.1393 9.09865 16.5725 8.82785 16.7892L7.09478 18.4681C6.98646 18.5764 6.87814 18.7389 6.87814 18.9013V22.0425C6.87814 22.6383 7.58221 22.9091 8.01548 22.4758L11.3192 19.1721C11.5899 18.9013 12.0232 18.9013 12.2398 19.1721L12.9981 19.9304C13.2689 20.2011 13.2689 20.6344 12.9981 20.8511L8.12379 25.7253C7.79884 26.0503 7.90716 26.5919 8.28627 26.8085C10.0193 27.6209 11.9691 28 14.0271 28C17.5474 28 20.7428 26.7002 23.1799 24.588C23.6132 24.2089 23.3424 23.4507 22.7466 23.4507H17.9265C17.764 23.4507 17.6016 23.3965 17.4932 23.234L14.6228 20.4178Z" fill="#000"/>
</svg>
