<svg width="22" height="22" viewBox="0 0 17 14" fill="none" xmlns="http://www.w3.org/2000/svg">
<g opacity="0.6">
<path d="M3.26787 7.00954C2.79042 7.27397 2.21994 7.18093 1.72046 7.48209C1.66904 6.71817 1.68863 6.02037 1.82819 5.33236C1.8894 5.03855 1.83798 4.81574 1.68863 4.5611C0.954097 3.30995 0.670078 2.01228 1.37278 0.638708C1.576 0.658295 1.46827 0.795408 1.46827 0.890897C1.46827 1.38793 1.54417 1.87272 1.73025 2.34527C1.85512 2.23998 1.77432 2.12491 1.75718 2.02452C1.71311 1.77723 1.69597 1.53239 1.71556 1.28265C1.73515 1.02066 1.70822 0.685228 1.8845 0.535874C2.07303 0.376725 2.30074 0.670538 2.51375 0.753784C3.3707 1.09412 4.22276 0.952108 5.07481 0.748888C6.35535 0.44773 7.62609 0.0780161 8.95803 0.00701143C9.45996 -0.0199214 9.94965 0.0290474 10.4246 0.183299C11.2449 0.44773 11.7835 1.00108 12.0259 1.8262C12.0773 2.00004 12.1337 2.09553 12.3246 2.15429C13.9137 2.64643 14.6409 3.82902 14.8637 5.39357C14.9469 5.96895 14.9445 6.54434 14.8833 7.12706C14.8539 7.42332 14.778 7.49923 14.5184 7.34987C14.3813 7.27152 14.183 7.28621 14.1169 7.09523C14.0018 6.92384 14.0214 6.72552 14.0092 6.53454C13.9553 5.68249 13.5978 4.97244 13.0151 4.36278C12.8094 4.14732 12.6601 4.13263 12.4495 4.37992C11.5828 5.39847 10.5569 6.18931 9.23471 6.52965C8.48304 6.72307 7.72402 6.85529 6.94542 6.75C6.76668 6.72552 6.46798 6.76225 6.45329 6.55903C6.43615 6.34601 6.73485 6.34846 6.91114 6.30439C7.55753 6.14279 8.17698 5.91509 8.75971 5.59679C8.95069 5.49151 9.13432 5.37888 9.3302 5.16097C8.05456 5.04589 6.85238 4.77167 5.62816 4.89654C4.65858 4.99448 3.98281 5.54782 3.56413 6.42191C3.47109 6.62024 3.40008 6.8308 3.26787 7.00954Z" fill="white"/>
<path d="M6.66874 8.07951C7.79502 8.49329 8.91396 8.33414 10.0427 8.06971C12.0896 7.59227 14.1218 7.7808 16.1417 8.25579C16.3866 8.31456 16.487 8.45901 16.4796 8.69896C16.4723 8.90463 16.4527 9.11275 16.4527 9.31841C16.4527 9.48736 16.4356 9.61467 16.2127 9.59509C16.0144 9.57795 16.012 9.73954 15.9924 9.87421C15.9287 10.337 15.9042 10.8071 15.7818 11.2625C15.4341 12.543 14.4327 13.3755 13.1155 13.4881C12.5083 13.5395 11.9059 13.5493 11.2987 13.4783C10.6793 13.4049 10.1676 13.1527 9.77826 12.6605C9.27388 12.0215 8.92375 11.3139 8.86009 10.4888C8.82092 9.9746 8.67156 9.81055 8.2284 9.8179C7.76809 9.82524 7.60894 10.004 7.57711 10.5328C7.52325 11.4339 7.15843 12.1782 6.54877 12.854C5.46411 14.0537 1.55151 13.8603 0.799841 11.6322C0.616208 11.0739 0.50358 10.5108 0.528064 9.92563C0.532961 9.77137 0.552549 9.59509 0.324844 9.60733C0.0236864 9.62202 0.00654739 9.44084 0.00165051 9.21313C-0.0130401 8.36597 0.0530677 8.27048 0.919814 8.11134C2.80511 7.76366 4.6953 7.67796 6.58794 8.07216C6.61732 8.04278 6.64426 8.04768 6.66874 8.07951Z" fill="white"/>
<path d="M11.1935 1.07453C9.87129 0.388969 8.60301 0.604432 7.34206 1.02311C6.51694 1.29979 5.68937 1.54218 4.80303 1.40017C4.42353 1.33896 4.07095 1.21409 3.68655 0.866414C5.41269 1.21654 6.84258 0.430593 8.35571 0.119641C8.96782 -0.00522904 9.58238 -0.0517493 10.1896 0.156368C10.6328 0.305722 10.9731 0.572602 11.1935 1.07453Z" fill="#1A6BB4"/>
<path d="M4.0832 8.65244C4.9377 8.64754 5.68203 8.76751 6.40921 8.99767C6.84258 9.13478 7.10702 9.42614 7.07274 9.83258C6.99439 10.7507 6.78627 11.6248 6.07378 12.2933C5.26334 13.0547 3.59351 13.1967 2.50151 12.5846C1.43644 11.9897 0.939405 10.8462 1.19159 9.63426C1.2626 9.28903 1.46337 9.1054 1.77432 9.0148C2.56027 8.78955 3.35601 8.6353 4.0832 8.65244Z" fill="#1A6BB4"/>
<path d="M15.0228 11.0813C15.0791 11.7081 14.7339 12.139 14.2785 12.4744C13.5586 13.0033 12.7213 12.8809 11.8937 12.8491C10.6548 12.8025 9.94964 12.139 9.6191 11.0029C9.47464 10.5035 9.54565 9.99173 9.58482 9.48735C9.59951 9.28903 9.72194 9.11764 9.92026 9.05153C10.9902 8.7063 12.0798 8.54715 13.2012 8.75772C13.4338 9.2572 13.3089 9.78606 13.3236 10.3002C13.3432 11.047 13.3285 11.0421 14.0851 11.0323C14.4009 11.0299 14.7192 10.9221 15.0228 11.0813Z" fill="#1A6BB4"/>
<path d="M15.0228 11.0813C14.5037 11.096 13.9822 11.1009 13.4632 11.1254C13.2257 11.1352 13.1963 11.0127 13.1987 10.8193C13.2061 10.1313 13.2036 9.44573 13.2061 8.75772C13.8451 9.50449 14.5037 10.239 15.0228 11.0813Z" fill="#E5E5E5"/>
<path d="M3.86773 10.9075C3.2899 10.9075 2.70962 10.9099 2.13179 10.905C2.02161 10.905 1.87715 10.9564 1.87225 10.7434C1.8698 10.5402 1.97998 10.5255 2.13179 10.5255C3.2899 10.5279 4.44801 10.5304 5.60612 10.5255C5.76771 10.5255 5.8632 10.55 5.86075 10.7459C5.85831 10.9613 5.71385 10.9026 5.60367 10.905C5.02339 10.9075 4.44556 10.9075 3.86773 10.9075Z" fill="white"/>
<path d="M3.89466 11.9823C3.41232 11.9823 2.92997 11.9823 2.44763 11.9823C2.32521 11.9823 2.19789 12.0068 2.20279 11.806C2.20769 11.6346 2.28604 11.6004 2.43539 11.6004C3.41476 11.6028 4.39169 11.6028 5.37107 11.6004C5.50573 11.6004 5.60611 11.6102 5.61346 11.7938C5.62325 12.0264 5.47145 11.9799 5.34168 11.9823C4.85934 11.9848 4.377 11.9823 3.89466 11.9823Z" fill="white"/>
<path d="M3.89712 9.8179C3.51271 9.8179 3.12586 9.81545 2.74146 9.82034C2.59945 9.82279 2.50885 9.79831 2.50885 9.62202C2.50885 9.44573 2.597 9.42125 2.74146 9.42125C3.55434 9.4237 4.36722 9.4237 5.17765 9.42125C5.30497 9.42125 5.38821 9.44573 5.39311 9.59754C5.39556 9.75179 5.34659 9.82279 5.1801 9.82034C4.74917 9.813 4.32315 9.8179 3.89712 9.8179Z" fill="white"/>
<path d="M10.7013 12.0729C10.5642 11.8207 10.6646 11.7301 10.9241 11.7301C11.8962 11.7326 12.8682 11.7375 13.8427 11.7277C14.1389 11.7252 14.112 11.8697 14.041 12.0631C13.0763 12.1513 12.1092 12.09 11.1445 12.0925C11 12.0925 10.8458 12.1341 10.7013 12.0729Z" fill="white"/>
<path d="M11.4089 10.5279C11.6978 10.5279 11.9868 10.5328 12.2757 10.5255C12.4422 10.5206 12.4838 10.5989 12.4838 10.7507C12.4862 10.9123 12.4005 10.927 12.2757 10.9246C11.6831 10.9221 11.0931 10.9197 10.5006 10.9221C10.3781 10.9221 10.29 10.9123 10.29 10.7483C10.29 10.5965 10.3316 10.5206 10.4981 10.5255C10.8042 10.5328 11.1078 10.5279 11.4089 10.5279Z" fill="white"/>
<path d="M11.2008 9.36739C11.4481 9.36739 11.6954 9.37228 11.9402 9.36494C12.1018 9.36004 12.1532 9.42615 12.1532 9.58285C12.1508 9.7322 12.0871 9.76403 11.9525 9.76158C11.4456 9.75669 10.9364 9.75179 10.4295 9.76158C10.263 9.76403 10.2214 9.70527 10.2214 9.54857C10.2214 9.39677 10.2851 9.36249 10.4173 9.36494C10.6793 9.37228 10.9413 9.36983 11.2008 9.36739Z" fill="white"/>
<path d="M10.7013 12.0729C10.9535 11.948 11.2082 12.0656 11.4628 12.0631C12.3222 12.0533 13.1816 12.0607 14.041 12.0631C14.0214 12.1268 13.9724 12.1341 13.9137 12.1341C12.8902 12.1341 11.8668 12.1341 10.8433 12.1292C10.7968 12.1317 10.7503 12.0949 10.7013 12.0729Z" fill="white"/>
</g>
</svg>
