<svg width="22" height="22" viewBox="0 0 15 15" fill="none" xmlns="http://www.w3.org/2000/svg">
<path d="M14.67 7.335C14.67 7.52954 14.5927 7.7161 14.4552 7.85366C14.3176 7.99122 14.131 8.0685 13.9365 8.0685H8.0685V13.9365C8.0685 14.131 7.99122 14.3176 7.85366 14.4552C7.7161 14.5927 7.52954 14.67 7.335 14.67C7.14046 14.67 6.9539 14.5927 6.81634 14.4552C6.67878 14.3176 6.6015 14.131 6.6015 13.9365V8.0685H0.7335C0.538964 8.0685 0.352395 7.99122 0.214837 7.85366C0.0772792 7.7161 0 7.52954 0 7.335C0 7.14046 0.0772792 6.9539 0.214837 6.81634C0.352395 6.67878 0.538964 6.6015 0.7335 6.6015H6.6015V0.7335C6.6015 0.538964 6.67878 0.352395 6.81634 0.214837C6.9539 0.0772792 7.14046 0 7.335 0C7.52954 0 7.7161 0.0772792 7.85366 0.214837C7.99122 0.352395 8.0685 0.538964 8.0685 0.7335V6.6015H13.9365C14.131 6.6015 14.3176 6.67878 14.4552 6.81634C14.5927 6.9539 14.67 7.14046 14.67 7.335Z" fill="white"/>
</svg>
