<svg width="30" height="30" viewBox="0 0 17 9" fill="none" xmlns="http://www.w3.org/2000/svg">
<g opacity="0.6">
<path d="M14.5202 5.28163C14.4618 5.28163 14.4042 5.28163 14.3458 5.28163C14.0182 5.28163 13.6907 5.27885 13.3632 5.28441C13.2537 5.28627 13.2082 5.26029 13.2101 5.13967C13.2166 4.68315 13.2147 4.22571 13.211 3.7692C13.2101 3.66806 13.2398 3.63095 13.3437 3.63095C14.3402 3.63466 15.3377 3.63466 16.3342 3.63466C16.4029 3.63466 16.4585 3.63652 16.466 3.73209C16.5244 4.5681 16.4066 5.37071 15.9928 6.10929C15.3275 7.29603 14.3272 8.02998 12.9763 8.23596C11.2458 8.50041 9.63128 7.69316 8.77208 6.20857C8.19865 5.21853 7.62708 4.2285 7.05459 3.23939C6.81427 2.82463 6.57303 2.40987 6.33642 1.99326C6.2492 1.83923 6.14064 1.72975 5.94671 1.73253C5.75557 1.73531 5.64608 1.84387 5.55794 1.99697C4.37305 4.05035 3.18816 6.10372 2.00698 8.15895C1.94389 8.26937 1.87337 8.31019 1.74718 8.30834C1.20716 8.30184 0.667138 8.30648 0.127118 8.30556C0.0909313 8.30556 0.0547443 8.30184 0 8.29813C0.0250525 8.24803 0.0417543 8.2072 0.0640232 8.16916C0.986325 6.57137 1.90955 4.9745 2.83278 3.37671C3.27631 2.61029 3.71426 1.84016 4.16428 1.07745C4.81007 -0.0174318 6.25848 -0.284658 7.24109 0.518877C7.43966 0.681254 7.61595 0.893736 7.74678 1.1155C8.57722 2.53142 9.39282 3.9557 10.2112 5.37813C11.0899 6.90633 13.2203 7.06407 14.3133 5.67876C14.4005 5.56834 14.4683 5.44401 14.5453 5.32617C14.5369 5.31225 14.5286 5.29648 14.5202 5.28163Z" fill="white"/>
<path d="M6.35033 3.78403L3.7393 8.35286H5.69711L7.34686 5.46997L6.35033 3.78403Z" fill="white"/>
<path d="M9.03373 1.66291L10.0126 3.31267C10.0126 3.31267 10.6204 1.79838 12.1885 1.70838C13.7566 1.61745 14.4182 2.85059 14.4182 2.85059H16.3129C16.3129 2.85059 15.5149 0.171829 12.4965 0.00852394C12.4965 0.00852394 10.5341 -0.217876 9.03373 1.66291Z" fill="white"/>
</g>
</svg>
