<svg width="173" height="28" viewBox="0 0 173 28" fill="none" xmlns="http://www.w3.org/2000/svg">
<path d="M82.7357 27.5405L76.7239 18.9249C80.2085 17.4315 82.2379 14.4831 82.2379 10.4624C82.2379 4.45064 77.7578 0.736354 70.5973 0.736354H58.9949V27.5405H65.1982V20.0736H70.5973H70.9036L76.073 27.5405H82.7357ZM75.9581 10.4624C75.9581 13.3726 74.0435 15.134 70.2526 15.134H65.1982V5.79085H70.2526C74.0435 5.79085 75.9581 7.51397 75.9581 10.4624ZM100.134 28C108.558 28 114.799 22.1414 114.799 14.1384C114.799 6.13548 108.558 0.276855 100.134 0.276855C91.6711 0.276855 85.4678 6.17377 85.4678 14.1384C85.4678 22.1031 91.6711 28 100.134 28ZM100.134 22.7158C95.3471 22.7158 91.7477 19.2312 91.7477 14.1384C91.7477 9.04564 95.3471 5.5611 100.134 5.5611C104.92 5.5611 108.519 9.04564 108.519 14.1384C108.519 19.2312 104.92 22.7158 100.134 22.7158ZM131.37 28C138.99 28 143.508 23.6348 143.508 15.7467V0.736354H137.382V15.5169C137.382 20.6097 135.199 22.7158 131.408 22.7158C127.656 22.7158 125.435 20.6097 125.435 15.5169V0.736354H119.231V15.7467C119.231 23.6348 123.75 28 131.37 28ZM161.241 0.736354H149.639V27.5405H155.842V20.1502H161.241C168.401 20.1502 172.882 16.4359 172.882 10.4624C172.882 4.45064 168.401 0.736354 161.241 0.736354ZM160.896 15.0957H155.842V5.79085H160.896C164.687 5.79085 166.602 7.51397 166.602 10.4624C166.602 13.3726 164.687 15.0957 160.896 15.0957Z" fill="white"/>
<path d="M48.0866 17.491C47.8931 17.491 47.7025 17.491 47.5089 17.491C46.4242 17.491 45.3395 17.4819 44.2548 17.5003C43.8922 17.5065 43.7417 17.4205 43.7478 17.0209C43.7693 15.5091 43.7632 13.9942 43.7509 12.4824C43.7478 12.1475 43.8461 12.0246 44.1903 12.0246C47.4905 12.0368 50.7939 12.0368 54.094 12.0368C54.3214 12.0368 54.5058 12.043 54.5304 12.3595C54.7239 15.1281 54.3336 17.786 52.9632 20.2321C50.76 24.1622 47.4475 26.5928 42.9735 27.275C37.2426 28.1507 31.8959 25.4773 29.0505 20.5608C27.1514 17.2822 25.2586 14.0034 23.3626 10.7278C22.5669 9.35427 21.7679 7.98072 20.9843 6.60101C20.6955 6.09093 20.336 5.72833 19.6937 5.73755C19.0607 5.74677 18.6981 6.10629 18.4062 6.61331C14.4822 13.4135 10.5582 20.2136 6.64652 27.0199C6.43756 27.3856 6.20403 27.5208 5.78613 27.5146C3.99775 27.4931 2.20936 27.5086 0.420978 27.5055C0.301137 27.5055 0.181297 27.4931 0 27.4809C0.0829664 27.3149 0.138278 27.1797 0.212026 27.0538C3.26641 21.7623 6.32388 16.474 9.38133 11.1826C10.8501 8.64445 12.3005 6.094 13.7908 3.56814C15.9295 -0.0577963 20.7262 -0.942771 23.9803 1.7183C24.6379 2.25603 25.2217 2.95972 25.655 3.69412C28.4052 8.38325 31.1062 13.1 33.8164 17.8106C36.7264 22.8716 43.7816 23.394 47.4014 18.8062C47.6902 18.4407 47.9146 18.0289 48.1696 17.6386C48.142 17.5925 48.1143 17.5402 48.0866 17.491Z" fill="white"/>
<path d="M21.0303 12.5316L12.3834 27.6622H18.8672L24.3306 18.1149L21.0303 12.5316Z" fill="white"/>
<path d="M29.917 5.50707L33.1588 10.9706C33.1588 10.9706 35.1716 5.9557 40.3647 5.65765C45.5578 5.35651 47.7487 9.44029 47.7487 9.44029H54.0233C54.0233 9.44029 51.3808 0.569046 41.3849 0.0282288C41.3849 0.0282288 34.8858 -0.721541 29.917 5.50707Z" fill="white"/>
</svg>
