<svg width="22" height="22" viewBox="0 0 13 14" fill="none" xmlns="http://www.w3.org/2000/svg">
<g opacity="0.6">
<path d="M3.84782 4.13879L5.62609 0.256085C5.62609 0.256085 6.45593 -0.455283 7.04903 0.493241L7.73072 1.85664C7.73072 1.85664 7.99745 2.53834 7.37509 2.92364L4.38127 4.40551C4.38127 4.40551 3.63993 4.70191 3.84782 4.13879Z" fill="white"/>
<path d="M5.00373 5.82844L6.72275 9.2665C6.72275 9.2665 7.1673 9.97787 6.1893 10.1849C6.1893 10.1849 4.08497 9.71054 3.49218 11.0147L2.45485 13.356C2.45485 13.356 1.35818 14.6305 0.0832865 13.0893C0.0832865 13.0893 -0.15387 12.6447 0.172195 11.9333L2.39551 7.01372C2.39551 7.01372 3.58099 5.11677 5.00373 5.82844Z" fill="white"/>
<path d="M6.4858 5.41317L10.0721 13.3563C10.0721 13.3563 11.0501 14.6899 12.2061 13.5045C13.0768 12.6114 11.841 10.8553 11.4318 9.96385L9.83727 6.49127C9.55057 5.8668 9.23813 5.24797 8.97514 4.613C8.97514 4.61199 8.6188 3.75378 7.46359 4.25736C7.46369 4.25726 6.60418 4.49442 6.4858 5.41317Z" fill="white"/>
</g>
</svg>
