<svg width="22" height="22" viewBox="0 0 22 22" fill="none" xmlns="http://www.w3.org/2000/svg">
<path d="M8.8 14.5508C8.79753 15.3712 8.54601 16.1716 8.07872 16.846C7.61144 17.5204 6.95041 18.037 6.1831 18.3275L5.15277 18.7139C4.98632 18.7763 4.80724 18.7974 4.63084 18.7755C4.45445 18.7536 4.286 18.6892 4.13992 18.5879C3.99384 18.4866 3.87448 18.3515 3.79206 18.194C3.70964 18.0365 3.66662 17.8614 3.66667 17.6836V11.7333C3.66764 10.8584 4.01563 10.0196 4.63429 9.40095C5.25295 8.78229 6.09175 8.4343 6.96667 8.43333H7.7C7.94388 8.43331 8.18086 8.51434 8.37367 8.66367C8.56648 8.81301 8.7042 9.02219 8.76517 9.25833L9.47577 9.075C9.37413 8.68135 9.14453 8.33266 8.82308 8.08375C8.50162 7.83485 8.10655 7.69985 7.7 7.7H6.96667C5.89735 7.70126 4.87219 8.1266 4.11606 8.88273C3.35994 9.63885 2.9346 10.664 2.93333 11.7333V17.6836C2.93333 17.9798 3.0051 18.2716 3.1425 18.534C3.2799 18.7965 3.47884 19.0217 3.72229 19.1904C3.96575 19.3592 4.24646 19.4664 4.54041 19.503C4.83437 19.5395 5.1328 19.5043 5.41017 19.4003L6.4405 19.0139C7.34724 18.6705 8.1284 18.06 8.68065 17.2631C9.2329 16.4662 9.53024 15.5204 9.53333 14.5508V13.5667H8.8V14.5508Z" fill="white"/>
<path d="M15.0333 7.7H14.3C13.8934 7.69985 13.4984 7.83485 13.1769 8.08375C12.8555 8.33266 12.6259 8.68135 12.5242 9.075L13.2348 9.25833C13.2958 9.02219 13.4335 8.81301 13.6263 8.66367C13.8191 8.51434 14.0561 8.43331 14.3 8.43333H15.0333C15.9083 8.4343 16.7471 8.78229 17.3657 9.40095C17.9844 10.0196 18.3324 10.8584 18.3333 11.7333V17.6836C18.3333 17.8614 18.2903 18.0365 18.2078 18.194C18.1253 18.3515 18.0059 18.4866 17.8598 18.5879C17.7137 18.6891 17.5452 18.7534 17.3688 18.7753C17.1924 18.7972 17.0133 18.776 16.8469 18.7136L15.8173 18.3271C15.0499 18.0367 14.3888 17.5202 13.9215 16.8459C13.4541 16.1716 13.2025 15.3712 13.2 14.5508V13.5667H12.4667V14.5508C12.4697 15.5204 12.7671 16.4663 13.3194 17.2632C13.8718 18.0601 14.653 18.6706 15.5599 19.0139L16.5895 19.4003C16.8669 19.5044 17.1653 19.5397 17.4593 19.5031C17.7533 19.4666 18.0341 19.3594 18.2776 19.1906C18.5211 19.0219 18.7201 18.7966 18.8575 18.5342C18.9949 18.2717 19.0667 17.9799 19.0667 17.6836V11.7333C19.0654 10.664 18.6401 9.63885 17.8839 8.88273C17.1278 8.1266 16.1027 7.70126 15.0333 7.7V7.7Z" fill="white"/>
<path d="M15.0333 14.0067V14.8727L14.0371 15.869L14.5567 16.39L15.0333 15.9133V16.8667H15.7667V15.9185L16.2408 16.3926L16.7592 15.8741L15.7667 14.8815V13.6514C15.7766 13.6407 15.7879 13.6327 15.7975 13.6213C15.8118 13.6041 15.8213 13.5846 15.8341 13.5667H17.2333V12.8333H16.0486C16.0486 12.819 16.0486 12.8051 16.0486 12.7908C16.0317 12.6427 15.985 12.4996 15.9113 12.3701C15.8376 12.2405 15.7386 12.1272 15.62 12.0369L15.2002 11.7194L15.5518 11.3667H16.8667V10.6333H16.2851L16.7592 10.1592L16.2408 9.64076L15.7667 10.1149V9.53333H15.0333V10.8482L14.6084 11.2728L12.2467 9.48566C12.2013 9.45139 12.1644 9.40708 12.1389 9.35619C12.1135 9.30531 12.1002 9.24922 12.1 9.19233V3.3C12.1 3.00826 11.9841 2.72847 11.7778 2.52218C11.5715 2.31589 11.2917 2.2 11 2.2C10.7083 2.2 10.4285 2.31589 10.2222 2.52218C10.0159 2.72847 9.9 3.00826 9.9 3.3V9.19306C9.9 9.24999 9.88675 9.30613 9.86129 9.35704C9.83583 9.40796 9.79887 9.45224 9.75333 9.4864L7.39053 11.2735L6.96667 10.8482V9.53333H6.23333V10.1149L5.75923 9.64076L5.24077 10.1592L5.71487 10.6333H5.13333V11.3667H6.4482L6.80093 11.7194L6.3811 12.0369C6.26241 12.1272 6.16319 12.2404 6.0894 12.37C6.01562 12.4996 5.96879 12.6427 5.95173 12.7908V12.8333H4.76667V13.5667H6.16513C6.17833 13.5846 6.18823 13.6033 6.2018 13.6213C6.21097 13.6327 6.22307 13.64 6.2326 13.6506V14.8815L5.24003 15.8741L5.7585 16.3926L6.23333 15.9185V16.8667H6.96667V15.9133L7.44333 16.39L7.9618 15.8715L6.96667 14.8742V14.0067C6.99307 14.0085 7.0191 14.0151 7.04587 14.0151C7.28391 14.0153 7.51556 13.9381 7.70587 13.7951L10.7789 11.4851C10.8424 11.4375 10.9196 11.4118 10.9989 11.4118C11.0782 11.4118 11.1554 11.4375 11.2189 11.4851L14.2919 13.7969C14.5054 13.9545 14.7689 14.0291 15.0333 14.0067V14.0067ZM11.3667 6.96666H10.6333V6.23333H11.3667V6.96666ZM11.3667 5.5H10.6333V4.76666H11.3667V5.5ZM11 2.93333C11.0972 2.93333 11.1905 2.97196 11.2593 3.04072C11.328 3.10949 11.3667 3.20275 11.3667 3.3V4.03333H10.6333V3.3C10.6333 3.20275 10.672 3.10949 10.7407 3.04072C10.8095 2.97196 10.9028 2.93333 11 2.93333ZM10.34 10.8959L7.2666 13.2059C7.1888 13.2642 7.09101 13.2893 6.99474 13.2755C6.89848 13.2618 6.81161 13.2103 6.75327 13.1325C6.69492 13.0547 6.66987 12.9569 6.68362 12.8607C6.69737 12.7644 6.7488 12.6775 6.8266 12.6192L10.1999 10.0679C10.3343 9.96502 10.4433 9.83262 10.5184 9.68093C10.5936 9.52925 10.6329 9.36234 10.6333 9.19306V7.7H11.3667V9.19306C11.3671 9.36301 11.4067 9.53056 11.4824 9.68273C11.558 9.8349 11.6678 9.96759 11.803 10.0705L15.1763 12.6218C15.2541 12.6801 15.3056 12.767 15.3193 12.8632C15.3331 12.9595 15.308 13.0573 15.2497 13.1351C15.1913 13.2129 15.1045 13.2643 15.0082 13.2781C14.9119 13.2918 14.8141 13.2668 14.7363 13.2084L11.6629 10.8984C11.4722 10.7554 11.2403 10.6779 11.0019 10.6774C10.7635 10.677 10.5313 10.7536 10.34 10.8959V10.8959Z" fill="white"/>
<path d="M15.0333 4.4H14.6667V0.366667C14.6667 0.269421 14.628 0.176158 14.5593 0.107394C14.4905 0.0386308 14.3972 0 14.3 0H7.7C7.60275 0 7.50949 0.0386308 7.44073 0.107394C7.37196 0.176158 7.33333 0.269421 7.33333 0.366667V4.4H6.96667C5.11962 4.40204 3.3488 5.13668 2.04274 6.44274C0.736679 7.7488 0.0020381 9.51962 0 11.3667V20.9C0 21.1917 0.115893 21.4715 0.322183 21.6778C0.528473 21.8841 0.808262 22 1.1 22H20.9C21.1917 22 21.4715 21.8841 21.6778 21.6778C21.8841 21.4715 22 21.1917 22 20.9V11.3667C21.998 9.51962 21.2633 7.7488 19.9573 6.44274C18.6512 5.13668 16.8804 4.40204 15.0333 4.4V4.4ZM21.2667 20.9C21.2667 20.9972 21.228 21.0905 21.1593 21.1593C21.0905 21.228 20.9972 21.2667 20.9 21.2667H1.1C1.00275 21.2667 0.909491 21.228 0.840728 21.1593C0.771964 21.0905 0.733333 20.9972 0.733333 20.9V11.3667C0.735177 9.71405 1.39249 8.12965 2.56107 6.96107C3.72965 5.79249 5.31405 5.13518 6.96667 5.13333H7.7C7.79725 5.13333 7.89051 5.0947 7.95927 5.02594C8.02804 4.95718 8.06667 4.86391 8.06667 4.76667V0.733333H13.9333V4.76667C13.9333 4.86391 13.972 4.95718 14.0407 5.02594C14.1095 5.0947 14.2028 5.13333 14.3 5.13333H15.0333C16.686 5.13518 18.2704 5.79249 19.4389 6.96107C20.6075 8.12965 21.2648 9.71405 21.2667 11.3667V20.9Z" fill="white"/>
</svg>
