<svg width="22" height="22" viewBox="0 0 17 17" fill="none" xmlns="http://www.w3.org/2000/svg">
<path d="M13.2147 16.4809C13.062 16.4809 12.9094 16.4702 12.758 16.4487C12.0581 16.3487 11.4231 16.031 10.9218 15.5297C10.4781 15.0859 10.1742 14.5284 10.043 13.9176C9.92678 13.3768 9.94966 12.8173 10.1083 12.2892L4.19164 6.37267C3.6637 6.53122 3.10419 6.5541 2.56342 6.43792C1.95248 6.30679 1.39512 6.00289 0.951282 5.55919C0.449989 5.05777 0.132138 4.42295 0.0323072 3.72287C-0.0642549 3.04706 0.0573278 2.34321 0.374424 1.74096C0.412017 1.66967 0.481296 1.62038 0.56101 1.60831C0.640724 1.59599 0.721569 1.62277 0.778526 1.67973L1.92218 2.82339C2.17038 3.07158 2.57423 3.07158 2.8223 2.82339C3.07049 2.57519 3.07049 2.17134 2.8223 1.92314L1.67864 0.779487C1.62156 0.722405 1.59503 0.641685 1.6071 0.561845C1.6193 0.482131 1.66846 0.412853 1.73987 0.375259C2.34225 0.0582893 3.04623 -0.0631677 3.72204 0.0332686C4.42198 0.133225 5.05706 0.451076 5.55835 0.952369C6.36014 1.75416 6.6844 2.91467 6.4225 4.01319L12.4678 10.0585C13.5661 9.7966 14.7267 10.1207 15.5285 10.9225C16.0299 11.4239 16.3477 12.0589 16.4476 12.759C16.5442 13.4348 16.4226 14.1388 16.1056 14.741C16.068 14.8124 15.9987 14.8617 15.919 14.8738C15.8393 14.8859 15.7585 14.8593 15.7015 14.8024L14.5577 13.6586C14.3095 13.4104 13.9057 13.4104 13.6575 13.6586C13.4093 13.9068 13.4093 14.3106 13.6575 14.5588L14.8012 15.7024C14.8581 15.7594 14.8846 15.8402 14.8726 15.9199C14.8605 15.9996 14.8113 16.0689 14.7399 16.1065C14.2726 16.3526 13.7439 16.4809 13.2147 16.4809Z" fill="white"/>
</svg>
