<svg width="22" height="22" viewBox="0 0 18 18" fill="none" xmlns="http://www.w3.org/2000/svg">
<path d="M17.25 8.40417C17.2395 8.23373 17.1816 8.06961 17.0828 7.93032C16.984 7.79104 16.8482 7.68212 16.6908 7.61584L14.72 6.77251L16.7917 5.58084C16.9385 5.49636 17.0591 5.37283 17.14 5.22396C17.2209 5.07509 17.259 4.9067 17.25 4.73751C17.2395 4.56706 17.1816 4.40295 17.0828 4.26366C16.984 4.12437 16.8482 4.01545 16.6908 3.94917L9.3575 0.82334C9.2444 0.775437 9.12283 0.750753 9 0.750753C8.87718 0.750753 8.7556 0.775437 8.6425 0.82334L1.30917 3.94917C1.15179 4.01545 1.01604 4.12437 0.917248 4.26366C0.81845 4.40295 0.760526 4.56706 0.750003 4.73751C0.740996 4.9067 0.77906 5.07509 0.859968 5.22396C0.940876 5.37283 1.06146 5.49636 1.20834 5.58084L3.28 6.77251L1.30917 7.61584C1.15179 7.68212 1.01604 7.79104 0.917248 7.93032C0.81845 8.06961 0.760526 8.23373 0.750003 8.40417C0.740996 8.57337 0.77906 8.74175 0.859968 8.89062C0.940876 9.03949 1.06146 9.16303 1.20834 9.24751L3.28 10.4392L1.30917 11.2825C1.15179 11.3488 1.01604 11.4577 0.917248 11.597C0.81845 11.7363 0.760526 11.9004 0.750003 12.0708C0.740996 12.24 0.77906 12.4084 0.859968 12.5573C0.940876 12.7062 1.06146 12.8297 1.20834 12.9142L8.54167 17.1308C8.68102 17.2113 8.8391 17.2537 9 17.2537C9.16091 17.2537 9.31899 17.2113 9.45834 17.1308L16.7917 12.9142C16.9385 12.8297 17.0591 12.7062 17.14 12.5573C17.2209 12.4084 17.259 12.24 17.25 12.0708C17.2395 11.9004 17.1816 11.7363 17.0828 11.597C16.984 11.4577 16.8482 11.3488 16.6908 11.2825L14.72 10.4392L16.7917 9.24751C16.9385 9.16303 17.0591 9.03949 17.14 8.89062C17.2209 8.74175 17.259 8.57337 17.25 8.40417ZM9 2.66584L14.28 4.91167L9 7.94584L3.72 4.91167L9 2.66584ZM8.54167 9.79751C8.68102 9.87796 8.8391 9.92032 9 9.92032C9.16091 9.92032 9.31899 9.87796 9.45834 9.79751L12.7308 7.96417L14.28 8.62417L9 11.6125L3.72 8.57834L5.26917 7.91834L8.54167 9.79751ZM14.28 12.245L9 15.2792L3.72 12.245L5.26917 11.585L8.54167 13.4642C8.68102 13.5446 8.8391 13.587 9 13.587C9.16091 13.587 9.31899 13.5446 9.45834 13.4642L12.7308 11.585L14.28 12.245Z" fill="white"/>
</svg>
