<svg width="22" height="22" viewBox="0 0 14 17" fill="none" xmlns="http://www.w3.org/2000/svg">
<path d="M13.5566 6.57796L8.0294 1.05074C7.45801 0.479319 6.52817 0.479287 5.95672 1.05074C5.44303 1.5644 5.39879 2.3478 5.77812 2.9072L5.77043 2.94567C5.37194 4.93831 4.4018 6.75108 2.96482 8.18803L0.429627 10.7232C-0.14316 11.296 -0.143258 12.2231 0.429627 12.7959L1.81139 14.1777C2.38415 14.7504 3.31125 14.7505 3.88407 14.1777L4.22953 13.8322L6.64766 16.2503C7.22045 16.8232 8.14749 16.8232 8.72031 16.2503C9.29176 15.6789 9.29176 14.7491 8.72031 14.1777L7.68397 13.1414L8.02943 12.7959C8.60221 12.2231 8.60228 11.2961 8.02943 10.7233L7.79467 10.4885C8.94953 9.67991 10.2611 9.11699 11.6617 8.83685L11.7007 8.82907C12.2725 9.21515 13.0541 9.15309 13.5566 8.65057H13.5566C14.128 8.07919 14.128 7.14941 13.5566 6.57796ZM3.19319 13.4868C3.00228 13.6777 2.69318 13.6777 2.50227 13.4867L1.12051 12.105C0.929569 11.914 0.929569 11.605 1.12051 11.4141L3.53861 8.99596L5.61129 11.0686C5.37471 11.3052 3.4356 13.2443 3.19319 13.4868ZM8.0294 14.8685C8.21985 15.059 8.21985 15.3689 8.0294 15.5594C7.83894 15.7499 7.52896 15.7499 7.33851 15.5594L4.92038 13.1413L5.61129 12.4504L8.0294 14.8685ZM6.30217 11.7595C6.44904 11.6127 6.66887 11.3877 7.01583 11.0914L7.33851 11.4141C7.52945 11.605 7.52945 11.914 7.33851 12.105L6.99306 12.4504L6.30217 11.7595ZM6.32293 10.3985L4.20868 8.2843C5.34171 6.976 6.1531 5.43163 6.5872 3.75387L10.8534 8.02002C9.17559 8.45409 7.63126 9.26548 6.32293 10.3985ZM12.8656 7.95966C12.6747 8.15056 12.3657 8.15056 12.1748 7.95966L6.6476 2.4325C6.45666 2.24153 6.45666 1.93256 6.6476 1.74162C6.83854 1.55068 7.14757 1.55068 7.33851 1.74162L12.8656 7.26874C13.0561 7.45923 13.0561 7.76914 12.8656 7.95966Z" fill="white"/>
</svg>
