<svg width="30" height="30" viewBox="0 0 22 22" fill="none" xmlns="http://www.w3.org/2000/svg">
<path d="M18.7491 9.86959C17.8969 6.88092 15.9293 5.5922 14.1039 6.11264C13.6306 6.24762 13.2151 6.49312 12.8723 6.83269C12.6757 7.02741 12.4162 7.14503 12.1395 7.14503H8.99367C8.71697 7.14503 8.45733 7.02728 8.26073 6.83261C7.91794 6.49312 7.50258 6.24762 7.02923 6.1126C5.20391 5.5922 3.23634 6.88092 2.38415 9.86959C1.53188 12.8583 2.1177 16.415 3.94309 16.9355C5.31982 17.3281 7.00782 15.8808 8.12027 13.8636C8.23836 13.6494 8.46725 13.5201 8.71174 13.5201H12.4216C12.6661 13.5201 12.895 13.6494 13.0131 13.8636C14.1255 15.8807 15.8135 17.3281 17.1902 16.9355C19.0155 16.4151 19.6014 12.8583 18.7491 9.86959Z" fill="white"/>
<path d="M16.5097 10.9111C16.9828 10.9111 17.3664 10.5275 17.3664 10.0544C17.3664 9.58127 16.9828 9.19772 16.5097 9.19772C16.0366 9.19772 15.6531 9.58127 15.6531 10.0544C15.6531 10.5275 16.0366 10.9111 16.5097 10.9111Z" fill="#1A6BB4"/>
<path d="M13.4193 10.9111C13.8925 10.9111 14.276 10.5275 14.276 10.0544C14.276 9.58127 13.8925 9.19772 13.4193 9.19772C12.9462 9.19772 12.5627 9.58127 12.5627 10.0544C12.5627 10.5275 12.9462 10.9111 13.4193 10.9111Z" fill="#1A6BB4"/>
<path d="M7.69976 9.55195H6.42952V8.28163C6.42952 8.1487 6.32173 8.04086 6.18875 8.04086H5.14263C5.00966 8.04086 4.90186 8.1487 4.90186 8.28163V9.55195H3.63159C3.49861 9.55195 3.39082 9.6597 3.39082 9.79272V10.8388C3.39082 10.9718 3.49861 11.0796 3.63159 11.0796H4.90182V12.3498C4.90182 12.4828 5.00961 12.5906 5.14259 12.5906H6.18871C6.32169 12.5906 6.42948 12.4828 6.42948 12.3498V11.0796H7.69971C7.83269 11.0796 7.94048 10.9718 7.94048 10.8388V9.79272C7.94053 9.6597 7.83273 9.55195 7.69976 9.55195Z" fill="#1A6BB4"/>
<path d="M5.66563 8.26846L5.29389 8.6402L6.03745 8.64028L5.66563 8.26846Z" fill="white"/>
<path d="M5.66571 12.363L6.03745 11.9913L5.29389 11.9912L5.66571 12.363Z" fill="white"/>
<path d="M7.71298 10.3156L7.3412 9.94394L7.34116 10.6875L7.71298 10.3156Z" fill="white"/>
<path d="M3.61837 10.3158L3.99015 10.6875L3.99023 9.94394L3.61837 10.3158Z" fill="white"/>
<path d="M10.2623 7.90634H8.81368V8.50923H10.2623V7.90634Z" fill="#1A6BB4"/>
<path d="M12.3194 7.90634H10.8708V8.50923H12.3194V7.90634Z" fill="#1A6BB4"/>
<path d="M14.7335 9.46701C15.1386 9.46701 15.467 9.13861 15.467 8.7335C15.467 8.3284 15.1386 8 14.7335 8C14.3284 8 14 8.3284 14 8.7335C14 9.13861 14.3284 9.46701 14.7335 9.46701Z" fill="#1A6BB4"/>
<path d="M14.7335 12.115C15.1386 12.115 15.467 11.7866 15.467 11.3815C15.467 10.9763 15.1386 10.6479 14.7335 10.6479C14.3284 10.6479 14 10.9763 14 11.3815C14 11.7866 14.3284 12.115 14.7335 12.115Z" fill="#1A6BB4"/>
</svg>
