<svg width="22" height="22" viewBox="0 0 16 18" fill="none" xmlns="http://www.w3.org/2000/svg">
<path d="M14.4167 0.75H3.41667C2.68732 0.75 1.98785 1.03973 1.47212 1.55546C0.956399 2.07118 0.666668 2.77065 0.666668 3.5V14.5C0.666668 15.2293 0.956399 15.9288 1.47212 16.4445C1.98785 16.9603 2.68732 17.25 3.41667 17.25H14.4167C14.6598 17.25 14.8929 17.1534 15.0648 16.9815C15.2368 16.8096 15.3333 16.5764 15.3333 16.3333V1.66667C15.3333 1.42355 15.2368 1.19039 15.0648 1.01849C14.8929 0.846577 14.6598 0.75 14.4167 0.75ZM3.41667 2.58333H13.5V11.75H3.41667C3.10395 11.7525 2.79395 11.8083 2.5 11.915V3.5C2.5 3.25688 2.59658 3.02373 2.76849 2.85182C2.94039 2.67991 3.17355 2.58333 3.41667 2.58333ZM3.41667 15.4167C3.17355 15.4167 2.94039 15.3201 2.76849 15.1482C2.59658 14.9763 2.5 14.7431 2.5 14.5C2.5 14.2569 2.59658 14.0237 2.76849 13.8518C2.94039 13.6799 3.17355 13.5833 3.41667 13.5833H13.5V15.4167H3.41667Z" fill="white"/>
</svg>
