<svg width="17" height="11" viewBox="0 0 17 11" fill="none" xmlns="http://www.w3.org/2000/svg">
<path d="M0.120599 5.71432L4.72694 10.6711C4.81217 10.7627 4.9317 10.8151 5.0569 10.8151H7.0363C7.42991 10.8151 7.63432 10.3458 7.36625 10.0575L3.04178 5.4077L7.36625 0.757861C7.63432 0.469634 7.42991 0.00033474 7.0363 0.00033474H5.0569C4.9317 0.00033474 4.81217 0.0523224 4.72694 0.144272L0.120599 5.10108C-0.0399594 5.27402 -0.0399594 5.54138 0.120599 5.71432Z" fill="#3B4859"/>
<path d="M4.98528 5.71434L9.59162 10.6708C9.67685 10.7627 9.79638 10.8147 9.92158 10.8147H11.901C12.2946 10.8147 12.499 10.3454 12.2309 10.0572L9.76526 7.40586L16.2707 7.40586C16.6612 7.40586 16.978 7.08899 16.978 6.69855V4.11582C16.978 3.72539 16.6612 3.40851 16.2707 3.40851L9.76562 3.40851L12.2313 0.757528C12.4994 0.4693 12.2949 9.53674e-07 11.9013 9.53674e-07H9.92193C9.79674 9.53674e-07 9.6772 0.0519886 9.59197 0.143939L4.98563 5.10075C4.82472 5.27368 4.82472 5.5414 4.98528 5.71434Z" fill="#3B4859"/>
</svg>
