<svg width="26" height="23" viewBox="0 0 26 23" fill="none" xmlns="http://www.w3.org/2000/svg">
<path d="M14.467 0H10.8123C4.84084 0 0 4.84084 0 10.8123L4.42679 11.9975L14.467 0Z" fill="url(#paint0_radial)"/>
<path d="M3.65463 10.8123H0C0 16.7838 4.84084 21.6246 10.8123 21.6246H14.467L3.65463 10.8123Z" fill="url(#paint1_radial)"/>
<path d="M14.4669 21.6247C20.4383 21.6247 25.2792 16.7838 25.2792 10.8123C25.2792 4.84084 20.4383 0 14.4669 0C8.49538 0 3.65454 4.84084 3.65454 10.8123C3.65454 16.7838 8.49538 21.6247 14.4669 21.6247Z" fill="url(#paint2_radial)"/>
<path d="M24.2981 6.3057C21.7957 5.95026 18.8968 5.9236 16.6645 6.10406C15.9929 6.15832 15.4085 6.47974 15.0043 6.97224C14.8024 7.21788 14.5109 7.37128 14.1954 7.38703C13.8799 7.37133 13.5883 7.21793 13.3864 6.97224C13.3853 6.97091 13.3842 6.96963 13.3832 6.96829C12.9663 6.46345 12.3785 6.15669 11.7262 6.10401C9.69484 5.93984 7.03761 5.94182 4.67103 6.22952C4.18781 7.26063 3.86259 8.38062 3.72656 9.55819C3.79598 9.65229 3.84195 9.76437 3.85671 9.88558L4.06161 11.5642C4.20228 12.7165 5.14205 13.6305 6.29626 13.7373C7.90777 13.8865 9.88296 13.8726 11.3445 13.7373C12.4987 13.6305 13.4385 12.7165 13.5792 11.5642L13.7864 9.86603C13.7867 9.86351 13.7871 9.86104 13.7874 9.85857C13.8494 9.39165 14.5413 9.39165 14.6033 9.85857C14.6037 9.86104 14.604 9.86356 14.6043 9.86603L14.8115 11.5642C14.9522 12.7165 15.892 13.6305 17.0462 13.7373C18.508 13.8726 20.5359 13.8816 22.0944 13.7373C23.2486 13.6305 24.1884 12.7165 24.3291 11.5642L24.5376 9.85546C24.571 9.58188 24.7764 9.37111 25.0426 9.29986C25.0887 9.28752 25.1303 9.26545 25.1651 9.23617C25.0145 8.20495 24.7183 7.22094 24.2981 6.3057Z" fill="url(#paint3_radial)"/>
<path d="M12.7521 23C18.952 23 23.9781 22.3842 23.9781 21.6246H1.52612C1.52612 22.3843 6.55216 23 12.7521 23Z" fill="url(#paint4_radial)"/>
<path d="M21.0238 13.6222C19.8012 15.2462 18.1203 16.4552 16.105 16.9952C15.3237 17.2045 14.5357 17.3014 13.7545 17.2954C13.5015 17.2935 13.2792 17.4626 13.2137 17.707C13.1271 18.0302 13.3436 18.3561 13.675 18.4019C14.5834 18.5273 15.5159 18.4789 16.4365 18.2322C18.6925 17.6278 20.4155 15.9567 21.3229 13.7948C21.4018 13.607 21.1464 13.4593 21.0238 13.6222Z" fill="url(#paint5_radial)"/>
<path d="M14.1953 6.64647C14.5108 6.63077 14.8023 6.47732 15.0042 6.23168C15.0053 6.23035 15.0064 6.22907 15.0075 6.22773C15.4244 5.72289 16.0122 5.41613 16.6645 5.36345C17.5346 5.29314 18.4184 5.25749 19.2914 5.25749C19.3841 5.25749 19.5702 5.25873 19.5702 5.25873L15.5049 7.30576L14.2491 6.6478C14.2311 6.6478 14.2131 6.64736 14.1953 6.64647ZM15.1827 7.92515L14.1953 8.57495C14.4131 8.67084 14.5738 8.87589 14.6042 9.12547L14.8115 10.8236C14.9522 11.976 15.8919 12.89 17.0461 12.9968C17.7895 13.0656 18.5448 13.1004 19.2913 13.1004C19.3842 13.1004 19.4772 13.0999 19.5703 13.0988L15.1827 7.92515Z" fill="url(#paint6_radial)"/>
<path d="M8.8204 5.25873C8.72728 5.25794 8.63421 5.25749 8.54129 5.25749C6.83069 5.25749 5.03976 5.3947 3.37548 5.67662C3.22262 5.7025 3.11133 5.83595 3.11133 5.99099V8.24914C3.11133 8.39193 3.2042 8.52203 3.3424 8.55792C3.6183 8.62951 3.82206 8.86251 3.85657 9.14507L4.06147 10.8237C4.20214 11.976 5.14192 12.89 6.29612 12.9968C7.03939 13.0656 7.79481 13.1005 8.54124 13.1005C8.63411 13.1005 8.72713 13.0999 8.8202 13.0989L8.8204 5.25873Z" fill="url(#paint7_radial)"/>
<path d="M25.0152 5.67658C23.3509 5.39466 21.56 5.25745 19.8494 5.25745C18.9764 5.25745 18.0926 5.29309 17.2225 5.3634C16.5702 5.41608 15.9824 5.72284 15.5655 6.22769C15.5644 6.22897 15.5633 6.2303 15.5623 6.23159C15.349 6.49109 15.0356 6.64776 14.6996 6.64776H14.2491C13.9132 6.64776 13.5998 6.49114 13.3865 6.23159C13.3854 6.23025 13.3843 6.22897 13.3832 6.22769C12.9664 5.72284 12.3785 5.41608 11.7263 5.3634C10.8562 5.29309 9.97237 5.25745 9.09939 5.25745C7.3888 5.25745 5.59787 5.39466 3.93358 5.67658C3.78072 5.70245 3.66943 5.83591 3.66943 5.99094V8.24909C3.66943 8.39188 3.76231 8.52198 3.9005 8.55787C4.1764 8.62947 4.38017 8.86246 4.41468 9.14502L4.61958 10.8236C4.76024 11.976 5.70002 12.89 6.85423 12.9968C7.5975 13.0656 8.35292 13.1004 9.09935 13.1004C9.84582 13.1004 10.6012 13.0656 11.3445 12.9968C12.4987 12.8899 13.4385 11.976 13.5792 10.8236L13.7864 9.12547C13.8289 8.77778 14.124 8.51645 14.4744 8.51645C14.8246 8.51645 15.1198 8.77778 15.1622 9.12547L15.3695 10.8236C15.5102 11.976 16.4499 12.89 17.6041 12.9968C18.3475 13.0656 19.1028 13.1004 19.8493 13.1004C20.5958 13.1004 21.3512 13.0656 22.0944 12.9968C23.2486 12.8899 24.1885 11.976 24.3291 10.8236L24.5371 9.11965C24.5707 8.84434 24.7767 8.63193 25.0443 8.55891C25.1829 8.52104 25.2792 8.39509 25.2792 8.25121V5.99099C25.2793 5.83591 25.168 5.7025 25.0152 5.67658Z" fill="url(#paint8_radial)"/>
<path d="M11.2709 12.1997C9.82641 12.3334 8.37261 12.3334 6.92813 12.1997C6.14003 12.1268 5.51017 11.5123 5.41429 10.7267L5.07623 7.95695C4.96583 7.05248 5.62891 6.23475 6.53714 6.16133C8.24261 6.02353 9.95641 6.02353 11.6619 6.16133C12.5701 6.23475 13.2332 7.05248 13.1228 7.95695L12.7847 10.7267C12.6888 11.5122 12.059 12.1268 11.2709 12.1997Z" fill="url(#paint9_radial)"/>
<path d="M22.0368 12.1997C20.5923 12.3334 19.1385 12.3334 17.694 12.1997C16.9059 12.1268 16.276 11.5123 16.1802 10.7267L15.8421 7.95695C15.7317 7.05248 16.3948 6.23475 17.303 6.16133C19.0085 6.02353 20.7223 6.02353 22.4277 6.16133C23.336 6.23475 23.9991 7.05248 23.8887 7.95695L23.5506 10.7267C23.4547 11.5122 22.8249 12.1268 22.0368 12.1997Z" fill="url(#paint10_radial)"/>
<defs>
<radialGradient id="paint0_radial" cx="0" cy="0" r="1" gradientUnits="userSpaceOnUse" gradientTransform="translate(3.5851 1.99759) rotate(-45) scale(11.1579 8.72749)">
<stop offset="0.0132" stop-color="#FFFBE4"/>
<stop offset="0.6064" stop-color="#F9EFAF"/>
<stop offset="0.7207" stop-color="#F9EEAB"/>
<stop offset="0.8394" stop-color="#F8EC9E"/>
<stop offset="0.9597" stop-color="#F7E98A"/>
<stop offset="1" stop-color="#F6E781"/>
</radialGradient>
<radialGradient id="paint1_radial" cx="0" cy="0" r="1" gradientUnits="userSpaceOnUse" gradientTransform="translate(-0.903883 11.4948) scale(20.0243 13.216)">
<stop stop-color="#F6E266"/>
<stop offset="0.1349" stop-color="#F5DC60"/>
<stop offset="0.3156" stop-color="#F0CB51"/>
<stop offset="0.5216" stop-color="#E9AF37"/>
<stop offset="0.5854" stop-color="#E7A52E"/>
<stop offset="1" stop-color="#E7A52E"/>
</radialGradient>
<radialGradient id="paint2_radial" cx="0" cy="0" r="1" gradientUnits="userSpaceOnUse" gradientTransform="translate(16.5151 12.0853) scale(18.4332)">
<stop stop-color="#F6E266"/>
<stop offset="0.377" stop-color="#F4DD45"/>
<stop offset="0.4963" stop-color="#F2D340"/>
<stop offset="0.6976" stop-color="#ECB934"/>
<stop offset="0.8996" stop-color="#E49824"/>
</radialGradient>
<radialGradient id="paint3_radial" cx="0" cy="0" r="1" gradientUnits="userSpaceOnUse" gradientTransform="translate(19.4353 15.6919) scale(13.3095 8.30515)">
<stop stop-color="#F6E266"/>
<stop offset="0.4319" stop-color="#F4DD45"/>
<stop offset="0.5386" stop-color="#F2D340"/>
<stop offset="0.7188" stop-color="#ECB934"/>
<stop offset="0.8996" stop-color="#E49824"/>
</radialGradient>
<radialGradient id="paint4_radial" cx="0" cy="0" r="1" gradientUnits="userSpaceOnUse" gradientTransform="translate(12.6057 21.6569) scale(10.7722 1.29591)">
<stop stop-color="#ECB780"/>
<stop offset="0.3347" stop-color="#FADDB9"/>
<stop offset="0.4962" stop-color="#FFECD0"/>
<stop offset="0.888" stop-color="white"/>
</radialGradient>
<radialGradient id="paint5_radial" cx="0" cy="0" r="1" gradientUnits="userSpaceOnUse" gradientTransform="translate(19.4405 18.0757) rotate(-15.0089) scale(7.73707 3.38714)">
<stop stop-color="#D8AA8B"/>
<stop offset="0.2127" stop-color="#CC9772"/>
<stop offset="0.5905" stop-color="#B16E3D"/>
<stop offset="0.6258" stop-color="#AD6B3B"/>
<stop offset="1" stop-color="#804F2B"/>
</radialGradient>
<radialGradient id="paint6_radial" cx="0" cy="0" r="1" gradientUnits="userSpaceOnUse" gradientTransform="translate(13.487 4.95947) scale(7.95734 4.4402)">
<stop stop-color="#DFDDE2"/>
<stop offset="0.0999" stop-color="#CDCAD0"/>
<stop offset="0.3019" stop-color="#9F9AA0"/>
<stop offset="0.5225" stop-color="#665E66"/>
<stop offset="0.6964" stop-color="#5E565E"/>
<stop offset="0.972" stop-color="#474247"/>
<stop offset="0.9894" stop-color="#454045"/>
</radialGradient>
<radialGradient id="paint7_radial" cx="0" cy="0" r="1" gradientUnits="userSpaceOnUse" gradientTransform="translate(2.20893 5.20526) scale(8.08596 8.45792)">
<stop stop-color="#DFDDE2"/>
<stop offset="0.1026" stop-color="#CDCAD0"/>
<stop offset="0.3089" stop-color="#9F9AA2"/>
<stop offset="0.478" stop-color="#756E78"/>
<stop offset="0.692" stop-color="#665F69"/>
<stop offset="0.9894" stop-color="#544F57"/>
</radialGradient>
<radialGradient id="paint8_radial" cx="0" cy="0" r="1" gradientUnits="userSpaceOnUse" gradientTransform="translate(6.62796 6.35027) rotate(16.2052) scale(21.8276 19.8032)">
<stop offset="0.1044" stop-color="#544F57"/>
<stop offset="0.6862" stop-color="#665E66"/>
<stop offset="0.7956" stop-color="#6F6770"/>
<stop offset="0.9815" stop-color="#887E8B"/>
<stop offset="1" stop-color="#8B818E"/>
</radialGradient>
<radialGradient id="paint9_radial" cx="0" cy="0" r="1" gradientUnits="userSpaceOnUse" gradientTransform="translate(7.08766 5.13588) scale(9.94577 7.19079)">
<stop stop-color="#DFDDE2"/>
<stop offset="0.3811" stop-color="#7A767D"/>
<stop offset="0.5191" stop-color="#544F57"/>
<stop offset="0.6816" stop-color="#5A545D"/>
<stop offset="0.8909" stop-color="#6A636D"/>
<stop offset="1" stop-color="#756E78"/>
</radialGradient>
<radialGradient id="paint10_radial" cx="0" cy="0" r="1" gradientUnits="userSpaceOnUse" gradientTransform="translate(17.8535 5.13588) scale(9.94577 7.19079)">
<stop stop-color="#DFDDE2"/>
<stop offset="0.3811" stop-color="#7A767D"/>
<stop offset="0.5191" stop-color="#544F57"/>
<stop offset="0.6816" stop-color="#5A545D"/>
<stop offset="0.8909" stop-color="#6A636D"/>
<stop offset="1" stop-color="#756E78"/>
</radialGradient>
</defs>
</svg>
